<svg xmlns="http://www.w3.org/2000/svg" xmlns:xlink="http://www.w3.org/1999/xlink" width="500" zoomAndPan="magnify" viewBox="0 0 375 374.999991" height="500" preserveAspectRatio="xMidYMid meet" version="1.0"><defs><g/></defs><g fill="#ffffff" fill-opacity="1"><g transform="translate(112.94824, 254.999983)"><g><path d="M -1.5 -3 C -0.300781 -3 0.601562 -3.300781 1.5 -3.898438 C 3.300781 -5.398438 4.800781 -6.898438 5.699219 -9 C 6.601562 -10.800781 7.5 -12.601562 8.398438 -14.398438 C 17.699219 -33.300781 29.101562 -51.300781 44.699219 -65.398438 C 45.300781 -66 45.898438 -66.300781 46.800781 -66.300781 C 47.699219 -66.300781 48.601562 -65.398438 48.898438 -63.898438 C 49.199219 -60.898438 49.800781 -57.898438 50.101562 -55.199219 C 50.398438 -52.199219 50.699219 -49.199219 51 -46.199219 C 51.300781 -42.601562 52.199219 -39 54.300781 -35.101562 C 56.699219 -30.898438 60 -28.800781 63.898438 -28.800781 C 64.199219 -28.800781 64.800781 -28.800781 65.398438 -29.101562 C 65.699219 -29.101562 66.300781 -29.101562 66.601562 -29.101562 C 71.101562 -30 75 -32.101562 78.601562 -35.398438 C 81.898438 -38.398438 99.601562 -54.300781 102.898438 -57.601562 C 104.101562 -58.800781 105 -60.300781 105.601562 -61.800781 C 106.199219 -63.300781 105.898438 -64.800781 104.398438 -66 C 103.800781 -66.601562 103.199219 -66.898438 102.300781 -66.898438 C 101.398438 -66.898438 100.800781 -66.601562 100.199219 -66 C 99.601562 -65.699219 99 -64.800781 98.101562 -63.898438 C 97.199219 -63 95.101562 -60.898438 91.800781 -58.199219 C 89.101562 -55.800781 86.398438 -53.398438 84 -51 C 81.300781 -48.300781 78.898438 -45.898438 76.199219 -43.5 C 72.898438 -40.800781 69.898438 -38.398438 66.300781 -37.199219 C 66 -37.199219 65.699219 -37.199219 65.699219 -37.199219 C 65.398438 -36.898438 65.101562 -36.898438 64.800781 -36.898438 C 63 -36.898438 61.800781 -37.800781 61.199219 -39.300781 C 59.699219 -42 58.800781 -45 58.5 -48.601562 C 58.199219 -51 57.898438 -53.398438 57.898438 -55.800781 C 57.601562 -58.199219 57.300781 -60.601562 57 -63.300781 C 56.101562 -68.398438 55.199219 -75.601562 48.300781 -75.601562 C 36.601562 -75.601562 13.5 -41.101562 8.398438 -30.898438 C 7.5 -33 7.199219 -34.800781 8.101562 -36.601562 C 8.699219 -38.398438 9.300781 -40.199219 9.898438 -42 C 12.898438 -49.5 15.898438 -57.300781 18.898438 -65.101562 C 21.601562 -72.601562 24.601562 -80.398438 27.601562 -87.898438 L 29.398438 -91.5 C 30.300781 -93.601562 30 -95.398438 27.898438 -96.601562 C 27 -96.898438 26.398438 -97.199219 26.101562 -97.199219 C 22.800781 -97.199219 20.101562 -89.101562 18.300781 -86.398438 C 15.601562 -78.898438 12.601562 -71.398438 9.898438 -63.898438 C 7.199219 -56.398438 4.199219 -48.898438 1.5 -41.398438 C -1.800781 -31.5 -4.800781 -21.601562 -6 -11.101562 C -6 -9.300781 -6 -8.101562 -5.699219 -7.199219 C -5.398438 -4.5 -3.898438 -3 -1.5 -3 Z M -1.5 -3 "/></g></g></g><g fill="#ffffff" fill-opacity="1"><g transform="translate(203.848084, 254.999983)"><g><path d="M 9.898438 15.898438 C 15.898438 15.898438 25.5 5.699219 28.800781 0.601562 C 35.101562 -7.800781 41.699219 -16.5 48.300781 -25.800781 C 54.601562 -34.800781 61.199219 -43.5 67.5 -51.601562 C 69 -54 70.800781 -56.699219 72 -59.101562 C 72.898438 -60 73.199219 -61.199219 73.199219 -62.699219 C 73.5 -64.199219 73.199219 -65.398438 71.699219 -66 C 70.800781 -66.300781 70.199219 -66.601562 69.601562 -66.601562 C 67.5 -66.601562 64.800781 -61.800781 63.898438 -60.300781 C 50.699219 -42 35.398438 -20.699219 21.300781 -2.699219 C 19.800781 -0.601562 14.101562 6.601562 11.398438 6.601562 C 9.898438 6.601562 9 5.699219 8.699219 4.199219 C 6.601562 -1.800781 7.199219 -8.101562 8.101562 -14.101562 C 9.601562 -32.699219 13.800781 -65.398438 24.300781 -81.300781 C 38.101562 -102 63.898438 -145.199219 69.300781 -169.199219 C 69.601562 -171.601562 69.300781 -174 66.601562 -175.199219 C 65.398438 -175.5 64.800781 -175.800781 64.5 -175.800781 C 63.300781 -175.800781 61.800781 -175.199219 60.300781 -174 C 39.601562 -153.300781 22.800781 -108 13.800781 -80.699219 C 11.699219 -73.800781 9.898438 -67.800781 5.398438 -62.101562 C 4.199219 -60.898438 3.300781 -59.101562 4.5 -57.601562 C 7.199219 -54.300781 6 -50.699219 5.101562 -47.398438 C 2.398438 -34.5 0.300781 -21.898438 0 -6.601562 C 0 -5.699219 0 -4.199219 0 -2.398438 C 0 -0.601562 0 1.199219 0.300781 3.300781 C 1.199219 8.101562 4.199219 15.898438 9.898438 15.898438 Z M 34.199219 -107.699219 C 33.300781 -109.5 33.601562 -111.601562 34.5 -114 C 40.199219 -128.699219 47.101562 -142.5 55.199219 -156 C 56.398438 -157.5 57.300781 -158.398438 58.199219 -158.398438 C 58.5 -158.398438 59.101562 -158.101562 60 -157.800781 C 59.699219 -158.101562 59.699219 -158.398438 59.699219 -158.699219 C 59.699219 -158.398438 59.699219 -158.398438 60 -158.101562 L 60 -157.800781 L 51.898438 -141.601562 C 45.898438 -130.199219 40.199219 -118.800781 34.5 -107.699219 C 34.5 -108 34.5 -108 34.5 -108 C 34.199219 -108 34.199219 -108 34.199219 -107.699219 Z M 34.199219 -107.699219 "/></g></g></g></svg>