<svg xmlns="http://www.w3.org/2000/svg" xmlns:xlink="http://www.w3.org/1999/xlink" width="1587" zoomAndPan="magnify" viewBox="0 0 1190.25 1683.749949" height="2245" preserveAspectRatio="xMidYMid meet" version="1.0"><defs><clipPath id="id1"><path d="M 363 0.40625 L 1189.5 0.40625 L 1189.5 1661 L 363 1661 Z M 363 0.40625 " clip-rule="nonzero"/></clipPath><clipPath id="id2"><path d="M 1450.398438 -640.753906 L 2644.175781 681.777344 L 1534.742188 1683.207031 L 340.964844 360.675781 Z M 1450.398438 -640.753906 " clip-rule="nonzero"/></clipPath></defs><g clip-path="url(#id1)"><g clip-path="url(#id2)"><path fill="#00aeff" d="M 1487.566406 -599.574219 L 2607.007812 640.597656 C 2616.863281 651.519531 2621.980469 665.910156 2621.230469 680.601562 C 2620.480469 695.292969 2613.925781 709.082031 2603.007812 718.9375 L 1575.910156 1646.046875 C 1564.992188 1655.902344 1550.605469 1661.015625 1535.914062 1660.261719 C 1521.222656 1659.507812 1507.429688 1652.949219 1497.574219 1642.027344 L 378.132812 401.855469 C 368.277344 390.933594 363.160156 376.542969 363.910156 361.851562 C 364.65625 347.160156 371.214844 333.371094 382.132812 323.515625 L 1409.230469 -603.59375 C 1420.148438 -613.449219 1434.535156 -618.5625 1449.226562 -617.808594 C 1463.917969 -617.054688 1477.710938 -610.496094 1487.566406 -599.574219 " fill-opacity="1" fill-rule="nonzero"/></g></g></svg>