<svg width="122" height="36" viewBox="0 0 122 36" fill="none" xmlns="http://www.w3.org/2000/svg">
<rect width="36" height="36" rx="3" fill="url(#paint0_linear_1402_9362)"/>
<path d="M24.8777 21.9469C26.0239 22.6077 26.4343 24.0984 25.529 25.0633C24.5702 26.0853 23.4088 26.9089 22.1095 27.4764C20.0732 28.3657 17.8055 28.5789 15.6391 28.0847C13.4728 27.5905 11.5218 26.415 10.0727 24.7305C8.62355 23.0461 7.75248 20.9415 7.58734 18.7256C7.42219 16.5098 7.97165 14.2993 9.15509 12.4187C10.3385 10.538 12.0936 9.08622 14.1628 8.27635C16.232 7.46647 18.5062 7.34117 20.6519 7.91882C22.0209 8.28741 23.2916 8.92981 24.3913 9.79837C25.4296 10.6184 25.2448 12.1534 24.2092 12.9769V12.9769C23.1735 13.8003 21.6719 13.5641 20.4931 12.9633C20.1482 12.7876 19.7842 12.6471 19.4063 12.5454C18.2499 12.2341 17.0243 12.3016 15.9091 12.7381C14.794 13.1745 13.8481 13.957 13.2103 14.9705C12.5725 15.984 12.2764 17.1753 12.3654 18.3695C12.4544 19.5637 12.9238 20.698 13.7048 21.6057C14.4858 22.5135 15.5372 23.1471 16.7048 23.4134C17.8723 23.6798 19.0944 23.5649 20.1918 23.0856C20.5505 22.9289 20.8897 22.7361 21.2047 22.5111C22.2815 21.7423 23.7315 21.2861 24.8777 21.9469V21.9469Z" fill="white"/>
<path d="M51.92 24.224C54.8 24.224 56.592 22.384 56.848 19.84H55.008C54.896 21.232 54.112 22.704 51.904 22.704C49.376 22.704 48.416 20.56 48.416 18.272C48.416 16 49.376 13.856 51.904 13.856C54.096 13.856 54.8 15.328 55.008 16.448H56.848C56.576 14.16 54.8 12.336 51.936 12.336C48.688 12.336 46.576 14.832 46.576 18.288C46.576 21.728 48.672 24.224 51.92 24.224ZM58.4812 24H60.0492V12.56H58.4812V24ZM65.7454 24.24C67.8894 24.24 69.0894 23.056 69.5214 21.488H67.9214C67.7774 22.032 67.2174 22.96 65.7774 22.96C64.1614 22.96 63.3614 21.696 63.3294 20.336H69.6014C69.6174 20.208 69.6174 19.968 69.6174 19.744C69.6174 17.216 68.2254 15.584 65.7454 15.584C63.2494 15.584 61.7134 17.344 61.7134 19.904C61.7134 22.4 63.1534 24.24 65.7454 24.24ZM63.3294 19.104C63.4254 17.76 64.3854 16.864 65.6974 16.864C67.0894 16.864 67.9854 17.824 67.9854 19.104H63.3294ZM73.5179 24.224C74.8459 24.224 75.7739 23.696 76.3019 22.848H76.3339C76.4299 23.776 76.8459 24.08 77.6299 24.08C77.8859 24.08 78.1579 24.048 78.4299 23.984V23.024C78.3339 23.04 78.2859 23.04 78.2379 23.04C77.9339 23.04 77.8539 22.736 77.8539 22.144V18.4C77.8539 16.288 76.5099 15.584 74.8299 15.584C72.3339 15.584 71.3099 16.816 71.2299 18.384H72.8299C72.9099 17.296 73.3419 16.848 74.7659 16.848C75.9659 16.848 76.3179 17.344 76.3179 17.936C76.3179 18.736 75.5339 18.896 74.2539 19.136C72.2219 19.52 70.8459 20.064 70.8459 21.888C70.8459 23.28 71.8859 24.224 73.5179 24.224ZM72.4779 21.776C72.4779 20.928 73.0859 20.528 74.5259 20.24C75.3579 20.064 76.0619 19.888 76.3179 19.648V20.816C76.3179 22.24 75.2779 22.96 73.8699 22.96C72.8939 22.96 72.4779 22.544 72.4779 21.776ZM81.6499 19.776C81.6499 18.224 82.6739 17.152 84.0979 17.152C84.2899 17.152 84.4339 17.168 84.6259 17.2V15.696C84.3859 15.664 84.1619 15.648 83.8739 15.648C82.7699 15.648 82.1139 16.368 81.6819 17.392H81.6499V15.84H80.0819V24H81.6499V19.776ZM86.111 24H87.871V19.04H92.863V17.52H87.871V14.08H94.047V12.56H86.111V24ZM98.3535 24.24C100.497 24.24 101.697 23.056 102.129 21.488H100.529C100.385 22.032 99.8255 22.96 98.3855 22.96C96.7695 22.96 95.9695 21.696 95.9375 20.336H102.209C102.225 20.208 102.225 19.968 102.225 19.744C102.225 17.216 100.833 15.584 98.3535 15.584C95.8575 15.584 94.3215 17.344 94.3215 19.904C94.3215 22.4 95.7615 24.24 98.3535 24.24ZM95.9375 19.104C96.0335 17.76 96.9935 16.864 98.3055 16.864C99.6975 16.864 100.593 17.824 100.593 19.104H95.9375ZM107.486 24.24C109.63 24.24 110.83 23.056 111.262 21.488H109.662C109.518 22.032 108.958 22.96 107.518 22.96C105.902 22.96 105.102 21.696 105.07 20.336H111.342C111.358 20.208 111.358 19.968 111.358 19.744C111.358 17.216 109.966 15.584 107.486 15.584C104.99 15.584 103.454 17.344 103.454 19.904C103.454 22.4 104.894 24.24 107.486 24.24ZM105.07 19.104C105.166 17.76 106.126 16.864 107.438 16.864C108.83 16.864 109.726 17.824 109.726 19.104H105.07ZM116.25 24.224C117.53 24.224 118.314 23.616 118.762 23.04H118.794V24H120.362V12.56H118.794V16.832H118.762C118.314 16.192 117.53 15.6 116.25 15.6C114.17 15.6 112.586 17.232 112.586 19.92C112.586 22.608 114.17 24.224 116.25 24.224ZM114.218 19.92C114.218 18.32 114.97 16.912 116.506 16.912C117.914 16.912 118.778 18.064 118.778 19.92C118.778 21.76 117.914 22.928 116.506 22.928C114.97 22.928 114.218 21.52 114.218 19.92Z" fill="black"/>
<defs>
<linearGradient id="paint0_linear_1402_9362" x1="3.31829e-07" y1="0.63" x2="36" y2="36" gradientUnits="userSpaceOnUse">
<stop stop-color="#C784DA"/>
<stop offset="1" stop-color="#6D55FF"/>
</linearGradient>
</defs>
</svg>
